<svg width="1440" height="243" viewBox="0 0 1440 243" fill="none" xmlns="http://www.w3.org/2000/svg">
<rect x="280.969" y="216" width="212" height="20" transform="rotate(-25.1458 280.969 216)" fill="#E5E5E5"/>
<rect x="280.969" y="216" width="212" height="20" transform="rotate(-25.1458 280.969 216)" fill="url(#paint0_linear_808_2)"/>
<rect x="987.999" y="224.023" width="527.209" height="20" transform="rotate(-25.1458 987.999 224.023)" fill="#E5E5E5"/>
<rect x="987.999" y="224.023" width="527.209" height="20" transform="rotate(-25.1458 987.999 224.023)" fill="url(#paint1_linear_808_2)"/>
<rect x="-25.7188" y="73" width="212" height="20" transform="rotate(24.4643 -25.7188 73)" fill="#E5E5E5"/>
<rect x="-25.7188" y="73" width="212" height="20" transform="rotate(24.4643 -25.7188 73)" fill="url(#paint2_linear_808_2)"/>
<rect x="680.146" y="120" width="212" height="20" transform="rotate(27.2138 680.146 120)" fill="#E5E5E5"/>
<rect x="680.146" y="120" width="212" height="20" transform="rotate(27.2138 680.146 120)" fill="url(#paint3_linear_808_2)"/>
<defs>
<linearGradient id="paint0_linear_808_2" x1="386.969" y1="216" x2="386.969" y2="236" gradientUnits="userSpaceOnUse">
<stop stop-color="white"/>
<stop offset="1" stop-color="white" stop-opacity="0"/>
</linearGradient>
<linearGradient id="paint1_linear_808_2" x1="1251.6" y1="224.023" x2="1251.6" y2="244.023" gradientUnits="userSpaceOnUse">
<stop stop-color="white"/>
<stop offset="1" stop-color="white" stop-opacity="0"/>
</linearGradient>
<linearGradient id="paint2_linear_808_2" x1="80.2813" y1="73" x2="80.2813" y2="93" gradientUnits="userSpaceOnUse">
<stop stop-color="white"/>
<stop offset="1" stop-color="white" stop-opacity="0"/>
</linearGradient>
<linearGradient id="paint3_linear_808_2" x1="786.146" y1="120" x2="786.146" y2="140" gradientUnits="userSpaceOnUse">
<stop stop-color="white"/>
<stop offset="1" stop-color="white" stop-opacity="0"/>
</linearGradient>
</defs>
</svg>
