<svg width="183" height="65" viewBox="0 0 183 65" fill="none" xmlns="http://www.w3.org/2000/svg">
<path d="M43.0554 33.8028H37.6865V25.7428C37.6865 24.2868 36.4934 23.0648 35.015 23.0648H7.96267V33.8028H2.5937V6.94482H35.015C39.4502 6.94482 43.0554 10.5848 43.0554 15.0048C43.0554 17.0588 42.2773 18.9568 41.0064 20.3868C42.2773 21.8168 43.0554 23.6888 43.0554 25.7428V33.8028ZM35.015 17.7088C36.4934 17.7088 37.6865 16.4868 37.6865 15.0048C37.6865 13.5488 36.4934 12.3268 35.015 12.3268H7.96267V17.7088H35.015ZM79.6984 33.8028H57.2369C52.283 33.8028 48.2368 29.7468 48.2368 24.8068V15.9668C48.2368 11.0008 52.283 6.94482 57.2369 6.94482H79.6984C84.6523 6.94482 88.6985 11.0008 88.6985 15.9668V24.8068C88.6985 29.7468 84.6523 33.8028 79.6984 33.8028ZM79.6984 28.4468C81.6955 28.4468 83.3555 26.8088 83.3555 24.8068V15.9668C83.3555 13.9648 81.6955 12.3268 79.6984 12.3268H57.2369C55.2398 12.3268 53.6058 13.9648 53.6058 15.9668V24.8068C53.6058 26.8088 55.2398 28.4468 57.2369 28.4468H79.6984ZM126.327 33.8028H93.8799V6.94482H126.327C130.736 6.94482 134.368 10.5848 134.368 15.0048C134.368 17.0588 133.563 18.9568 132.293 20.3868C133.563 21.8168 134.368 23.6888 134.368 25.7428C134.368 30.1888 130.736 33.8028 126.327 33.8028ZM126.327 28.4468C127.78 28.4468 128.999 27.2248 128.999 25.7428C128.999 24.2868 127.78 23.0648 126.327 23.0648H99.2488V28.4468H126.327ZM126.327 17.7088C127.78 17.7088 128.999 16.4868 128.999 15.0048C128.999 13.5488 127.78 12.3268 126.327 12.3268H99.2488V17.7088H126.327ZM170.629 33.8028H148.168C143.215 33.8028 139.168 29.7468 139.168 24.8068V15.9668C139.168 11.0008 143.215 6.94482 148.168 6.94482H170.629C175.583 6.94482 179.63 11.0008 179.63 15.9668V24.8068C179.63 29.7468 175.583 33.8028 170.629 33.8028ZM170.629 28.4468C172.627 28.4468 174.287 26.8088 174.287 24.8068V15.9668C174.287 13.9648 172.627 12.3268 170.629 12.3268H148.168C146.171 12.3268 144.537 13.9648 144.537 15.9668V24.8068C144.537 26.8088 146.171 28.4468 148.168 28.4468H170.629Z" fill="url(#paint0_linear_0_682)"/>
<path d="M17.0464 64.841H14.078V52.9099H4.32284V49.9199H26.8016V52.9099H17.0464V64.841ZM52.1589 64.841H49.1761V60.3633C49.1761 59.5544 48.5133 58.8755 47.692 58.8755H32.6629V64.841H29.6802V49.9199H47.692C50.156 49.9199 52.1589 51.9421 52.1589 54.3977C52.1589 55.5388 51.7266 56.5933 51.0205 57.3877C51.7266 58.1821 52.1589 59.2221 52.1589 60.3633V64.841ZM47.692 55.8999C48.5133 55.8999 49.1761 55.221 49.1761 54.3977C49.1761 53.5888 48.5133 52.9099 47.692 52.9099H32.6629V55.8999H47.692ZM77.305 64.841H74.3222V60.3633H57.7946V64.841H54.8262V54.9321C54.8262 52.1733 57.0741 49.9199 59.8263 49.9199H72.3049C75.0571 49.9199 77.305 52.1733 77.305 54.9321V64.841ZM74.3222 57.3877V54.9321C74.3222 53.8199 73.4144 52.9099 72.3049 52.9099H59.8263C58.7168 52.9099 57.7946 53.8199 57.7946 54.9321V57.3877H74.3222ZM95.0159 61.8655C97.4655 61.8655 99.4828 59.8433 99.4828 57.3877C99.4828 54.9321 97.4655 52.9099 95.0159 52.9099H82.9552V61.8655H95.0159ZM95.0159 64.841H79.9724V49.9199H95.0159C99.1082 49.9199 102.451 53.2855 102.451 57.3877C102.451 61.4899 99.1082 64.841 95.0159 64.841ZM127.597 64.841H105.119V49.9199H127.597V52.9099H108.087V55.8999H127.597V58.8755H108.087V61.8655H127.597V64.841ZM152.955 64.841H149.972V60.3633C149.972 59.5544 149.309 58.8755 148.488 58.8755H133.459V64.841H130.476V49.9199H148.488C150.952 49.9199 152.955 51.9421 152.955 54.3977C152.955 55.5388 152.523 56.5933 151.817 57.3877C152.523 58.1821 152.955 59.2221 152.955 60.3633V64.841ZM148.488 55.8999C149.309 55.8999 149.972 55.221 149.972 54.3977C149.972 53.5888 149.309 52.9099 148.488 52.9099H133.459V55.8999H148.488ZM173.859 64.841H160.299C157.85 64.841 155.832 62.8333 155.832 60.3633H158.815C158.815 61.1866 159.492 61.8655 160.299 61.8655H173.859C174.666 61.8655 175.343 61.1866 175.343 60.3633C175.343 59.5544 174.666 58.8755 173.859 58.8755H160.299C157.85 58.8755 155.832 56.8677 155.832 54.3977C155.832 51.9421 157.85 49.9199 160.299 49.9199H173.859C176.308 49.9199 178.311 51.9421 178.311 54.3977H175.343C175.343 53.5888 174.666 52.9099 173.859 52.9099H160.299C159.492 52.9099 158.815 53.5888 158.815 54.3977C158.815 55.221 159.492 55.8999 160.299 55.8999H173.859C176.308 55.8999 178.311 57.9077 178.311 60.3633C178.311 62.8333 176.308 64.841 173.859 64.841Z" fill="#808285"/>
<path d="M152.74 0H148.417C147.622 0 146.976 0.6467 146.976 1.44444C146.976 2.24219 147.622 2.88889 148.417 2.88889H152.74C153.536 2.88889 154.181 2.24219 154.181 1.44444C154.181 0.6467 153.536 0 152.74 0Z" fill="#058BC6"/>
<path d="M170.031 0H165.709C164.913 0 164.268 0.6467 164.268 1.44444C164.268 2.24219 164.913 2.88889 165.709 2.88889H170.031C170.827 2.88889 171.472 2.24219 171.472 1.44444C171.472 0.6467 170.827 0 170.031 0Z" fill="#058BC6"/>
<defs>
<linearGradient id="paint0_linear_0_682" x1="2.5937" y1="24.4338" x2="179.63" y2="24.4338" gradientUnits="userSpaceOnUse">
<stop stop-color="#29728A"/>
<stop offset="1" stop-color="#35CDFE"/>
</linearGradient>
</defs>
</svg>
