<svg width="127" height="45" viewBox="0 0 127 45" fill="none" xmlns="http://www.w3.org/2000/svg">
<path d="M29.8798 23.4021H26.1538V17.8221C26.1538 16.8141 25.3258 15.9681 24.2998 15.9681H5.5258V23.4021H1.7998V4.80811H24.2998C27.3778 4.80811 29.8798 7.3281 29.8798 10.3881C29.8798 11.8101 29.3398 13.1241 28.4578 14.1141C29.3398 15.1041 29.8798 16.4001 29.8798 17.8221V23.4021ZM24.2998 12.2601C25.3258 12.2601 26.1538 11.4141 26.1538 10.3881C26.1538 9.38011 25.3258 8.53411 24.2998 8.53411H5.5258V12.2601H24.2998ZM55.3096 23.4021H39.7216C36.2836 23.4021 33.4756 20.5941 33.4756 17.1741V11.0541C33.4756 7.61611 36.2836 4.80811 39.7216 4.80811H55.3096C58.7476 4.80811 61.5556 7.61611 61.5556 11.0541V17.1741C61.5556 20.5941 58.7476 23.4021 55.3096 23.4021ZM55.3096 19.6941C56.6956 19.6941 57.8476 18.5601 57.8476 17.1741V11.0541C57.8476 9.66811 56.6956 8.53411 55.3096 8.53411H39.7216C38.3356 8.53411 37.2016 9.66811 37.2016 11.0541V17.1741C37.2016 18.5601 38.3356 19.6941 39.7216 19.6941H55.3096ZM87.6694 23.4021H65.1514V4.80811H87.6694C90.7294 4.80811 93.2494 7.3281 93.2494 10.3881C93.2494 11.8101 92.6914 13.1241 91.8094 14.1141C92.6914 15.1041 93.2494 16.4001 93.2494 17.8221C93.2494 20.9001 90.7294 23.4021 87.6694 23.4021ZM87.6694 19.6941C88.6774 19.6941 89.5234 18.8481 89.5234 17.8221C89.5234 16.8141 88.6774 15.9681 87.6694 15.9681H68.8774V19.6941H87.6694ZM87.6694 12.2601C88.6774 12.2601 89.5234 11.4141 89.5234 10.3881C89.5234 9.38011 88.6774 8.53411 87.6694 8.53411H68.8774V12.2601H87.6694ZM118.415 23.4021H102.827C99.3891 23.4021 96.5811 20.5941 96.5811 17.1741V11.0541C96.5811 7.61611 99.3891 4.80811 102.827 4.80811H118.415C121.853 4.80811 124.661 7.61611 124.661 11.0541V17.1741C124.661 20.5941 121.853 23.4021 118.415 23.4021ZM118.415 19.6941C119.801 19.6941 120.953 18.5601 120.953 17.1741V11.0541C120.953 9.66811 119.801 8.53411 118.415 8.53411H102.827C101.441 8.53411 100.307 9.66811 100.307 11.0541V17.1741C100.307 18.5601 101.441 19.6941 102.827 19.6941H118.415Z" fill="url(#paint0_linear_697_4)"/>
<path d="M11.83 44.8901H9.77V36.6301H3V34.5601H18.6V36.6301H11.83V44.8901ZM36.1977 44.8901H34.1277V41.7901C34.1277 41.2301 33.6677 40.7601 33.0977 40.7601H22.6677V44.8901H20.5977V34.5601H33.0977C34.8077 34.5601 36.1977 35.9601 36.1977 37.6601C36.1977 38.4501 35.8977 39.1801 35.4077 39.7301C35.8977 40.2801 36.1977 41.0001 36.1977 41.7901V44.8901ZM33.0977 38.7001C33.6677 38.7001 34.1277 38.2301 34.1277 37.6601C34.1277 37.1001 33.6677 36.6301 33.0977 36.6301H22.6677V38.7001H33.0977ZM53.6488 44.8901H51.5788V41.7901H40.1088V44.8901H38.0488V38.0301C38.0488 36.1201 39.6088 34.5601 41.5188 34.5601H50.1788C52.0888 34.5601 53.6488 36.1201 53.6488 38.0301V44.8901ZM51.5788 39.7301V38.0301C51.5788 37.2601 50.9488 36.6301 50.1788 36.6301H41.5188C40.7488 36.6301 40.1088 37.2601 40.1088 38.0301V39.7301H51.5788ZM65.94 42.8301C67.64 42.8301 69.04 41.4301 69.04 39.7301C69.04 38.0301 67.64 36.6301 65.94 36.6301H57.57V42.8301H65.94ZM65.94 44.8901H55.5V34.5601H65.94C68.78 34.5601 71.1 36.8901 71.1 39.7301C71.1 42.5701 68.78 44.8901 65.94 44.8901ZM88.5512 44.8901H72.9512V34.5601H88.5512V36.6301H75.0112V38.7001H88.5512V40.7601H75.0112V42.8301H88.5512V44.8901ZM106.149 44.8901H104.079V41.7901C104.079 41.2301 103.619 40.7601 103.049 40.7601H92.6188V44.8901H90.5488V34.5601H103.049C104.759 34.5601 106.149 35.9601 106.149 37.6601C106.149 38.4501 105.849 39.1801 105.359 39.7301C105.849 40.2801 106.149 41.0001 106.149 41.7901V44.8901ZM103.049 38.7001C103.619 38.7001 104.079 38.2301 104.079 37.6601C104.079 37.1001 103.619 36.6301 103.049 36.6301H92.6188V38.7001H103.049ZM120.656 44.8901H111.246C109.546 44.8901 108.146 43.5001 108.146 41.7901H110.216C110.216 42.3601 110.686 42.8301 111.246 42.8301H120.656C121.216 42.8301 121.686 42.3601 121.686 41.7901C121.686 41.2301 121.216 40.7601 120.656 40.7601H111.246C109.546 40.7601 108.146 39.3701 108.146 37.6601C108.146 35.9601 109.546 34.5601 111.246 34.5601H120.656C122.356 34.5601 123.746 35.9601 123.746 37.6601H121.686C121.686 37.1001 121.216 36.6301 120.656 36.6301H111.246C110.686 36.6301 110.216 37.1001 110.216 37.6601C110.216 38.2301 110.686 38.7001 111.246 38.7001H120.656C122.356 38.7001 123.746 40.0901 123.746 41.7901C123.746 43.5001 122.356 44.8901 120.656 44.8901Z" fill="#454545"/>
<path d="M106 0H103C102.448 0 102 0.447715 102 1C102 1.55228 102.448 2 103 2H106C106.552 2 107 1.55228 107 1C107 0.447715 106.552 0 106 0Z" fill="#058BC6"/>
<path d="M118 0H115C114.448 0 114 0.447715 114 1C114 1.55228 114.448 2 115 2H118C118.552 2 119 1.55228 119 1C119 0.447715 118.552 0 118 0Z" fill="#058BC6"/>
<defs>
<linearGradient id="paint0_linear_697_4" x1="-0.000195338" y1="14.5117" x2="127" y2="14.5117" gradientUnits="userSpaceOnUse">
<stop stop-color="#161F6D"/>
<stop offset="1" stop-color="#00ABE1"/>
</linearGradient>
</defs>
</svg>
